<svg width="32" height="31" viewBox="0 0 32 31" fill="none" xmlns="http://www.w3.org/2000/svg">
<path d="M28.3409 15.7004C30.7414 13.663 31.9417 12.6442 31.6238 11.6839C31.3059 10.7235 29.7349 10.6221 26.5928 10.4194L22.8135 10.1755C21.8941 10.1162 21.4344 10.0865 21.083 9.83147C20.7317 9.57639 20.5611 9.14848 20.2199 8.29265L18.7727 4.66206C17.5927 1.70216 17.0028 0.222205 15.9859 0.222203C14.9691 0.2222 14.3791 1.70215 13.1992 4.66205L11.7518 8.29294C11.4106 9.14863 11.2401 9.57648 10.8888 9.83154C10.5375 10.0866 10.0779 10.1163 9.1586 10.1758L5.39093 10.4194C2.25483 10.6222 0.686775 10.7236 0.368537 11.683C0.0502982 12.6424 1.24689 13.6608 3.64008 15.6977L6.5877 18.2065C7.28061 18.7962 7.62706 19.0911 7.75725 19.5003C7.88743 19.9095 7.77506 20.3503 7.55031 21.232L6.58541 25.0174C5.79661 28.1119 5.40221 29.6592 6.22579 30.2572C7.04937 30.8552 8.39855 30.0013 11.0969 28.2933L14.3815 26.2144C15.1612 25.7208 15.5511 25.474 15.9859 25.474C16.4208 25.474 16.8106 25.7208 17.5904 26.2144L20.8749 28.2933C23.5732 30.0012 24.9224 30.8552 25.746 30.2572C26.5696 29.6592 26.1752 28.1119 25.3864 25.0174L24.4222 21.2348C24.1971 20.3518 24.0846 19.9103 24.2152 19.5007C24.3459 19.0911 24.6932 18.7962 25.388 18.2066L28.3409 15.7004Z" fill="#3BF5BD"/>
</svg>
